PathFileType	4	(X/Y/Z)	H:\MAC\Pilotos\Biomecanica2_gait_2020\Trimmed_walk3.trc
DataRate	CameraRate	NumFrames	NumMarkers	Units	OrigDataRate	OrigDataStartFrame	OrigNumFrames
150.00	150.00	       9	28	mm	150.00	32	       251
Frame#	Time	R.ASIS			L.ASIS			R.PSIS			L.PSIS			L.Iliac.Crest			R.Iliac.Crest			R.GTR			R.Knee			R.HF			R.TT			R.Ankle			R.Heel			R.MT1			R.MT5			L.GTR			L.Knee			L.HF			L.TT			L.Ankle			L.Heel			L.MT1			L.MT5			R.Knee.Medial			R.Ankle.Medial			R.MT2			L.Knee.Medial			L.Ankle.Medial			L.MT2			V_Mid_ASIS			V_Mid_PSIS			V_Pelvis_Origin			V_R.Hip_JC			V_R.Knee_JC_Static			V_R.TT			V_R.Ankle_JC_Static			V_L.Hip_JC			V_Mid_Hip			V_R.MT2_Static			V_R.Knee.Medial			V_R.Ankle.Medial			V_R.TT			V_L.Knee_JC_Static			V_L.TT			V_L.Ankle_JC_Static			V_L.MT2_Static			V_R.Knee_JC			V_R.Ankle_JC			V_L.Knee_JC			V_L.Ankle_JC			V_R.TT_KJC_Static			V_L.TT_KJC_Static			V_R.TT_KJC			V_L.TT_KJC			V_R.MT2			V_L.MT2			
		X1	Y1	Z1	X2	Y2	Z2	X3	Y3	Z3	X4	Y4	Z4	X5	Y5	Z5	X6	Y6	Z6	X7	Y7	Z7	X8	Y8	Z8	X9	Y9	Z9	X10	Y10	Z10	X11	Y11	Z11	X12	Y12	Z12	X13	Y13	Z13	X14	Y14	Z14	X15	Y15	Z15	X16	Y16	Z16	X17	Y17	Z17	X18	Y18	Z18	X19	Y19	Z19	X20	Y20	Z20	X21	Y21	Z21	X22	Y22	Z22	X23	Y23	Z23	X24	Y24	Z24	X25	Y25	Z25	X26	Y26	Z26	X27	Y27	Z27	X28	Y28	Z28	X29	Y29	Z29	X30	Y30	Z30	X31	Y31	Z31	X32	Y32	Z32	X33	Y33	Z33	X34	Y34	Z34	X35	Y35	Z35	X36	Y36	Z36	X37	Y37	Z37	X38	Y38	Z38	X39	Y39	Z39	X40	Y40	Z40	X41	Y41	Z41	X42	Y42	Z42	X43	Y43	Z43	X44	Y44	Z44	X45	Y45	Z45	X46	Y46	Z46	X47	Y47	Z47	X48	Y48	Z48	X49	Y49	Z49	X50	Y50	Z50	X51	Y51	Z51	X52	Y52	Z52	X53	Y53	Z53	X54	Y54	Z54	X55	Y55	Z55	

32	0.207	255.80194	964.80566	-150.16443	232.73543	949.69873	-404.89603	45.73327	946.80322	-218.59717	35.66963	946.65161	-300.72070	149.04866	1000.32635	-441.52890	178.03917	1015.51660	-100.28492	193.92374	864.29974	-78.21844	236.92773	486.28976	-128.85788	243.25644	426.83649	-130.71721	298.10837	420.69714	-183.34547	224.83199	62.15591	-181.98598	175.28722	28.85571	-232.16858	380.77814	47.39270	-238.13153	345.93777	28.44586	-156.29834	143.52557	849.85834	-456.43268	134.15132	479.33679	-454.58823	107.99400	439.38483	-463.51807	158.60808	381.05582	-425.58252	-165.18062	229.01749	-387.47708	-198.52490	257.04410	-328.66348	-139.38789	65.77435	-358.36810	-170.73114	89.60247	-393.61069	242.30222	481.92099	-266.92691	246.32022	92.33542	-265.94028	374.44577	42.31039	-202.06430	185.69141	446.54160	-328.84741	-119.89783	211.04753	-312.44235	-127.42178	67.43089	-326.50314																																																																																		
33	0.213	263.74643	965.15137	-149.69604	240.06943	950.27344	-404.57373	53.12893	947.00812	-217.93175	42.77961	946.08392	-300.01263	155.86890	1000.30060	-440.88138	186.41656	1015.96710	-99.38161	200.57339	864.86139	-77.75523	239.81511	486.38290	-128.39511	245.14435	426.72375	-130.17639	300.44611	420.25995	-182.15353	224.94141	62.12739	-181.94736	175.33832	28.97169	-232.13673	380.85721	47.13293	-238.13069	346.01437	28.28371	-156.09010	151.29663	850.17139	-455.97470	149.33981	480.53125	-455.14621	123.57436	440.72012	-464.46201	173.99290	382.12582	-426.16422	-150.82314	233.20712	-386.40921	-184.45636	260.11261	-326.29572	-125.25776	68.96157	-361.37729	-156.83351	94.49294	-395.93881	245.41669	481.88928	-266.88626	246.57021	92.41193	-265.85062	374.47452	42.32748	-202.07555	199.89177	448.52997	-329.66556	-105.30126	213.99289	-311.93182	-113.35642	70.26341	-330.27731																																																																																		
34	0.220	272.04703	965.60638	-148.98598	247.93564	950.98145	-404.00934	60.68367	947.31744	-217.37831	49.97436	945.63934	-299.40735	162.78474	1000.59967	-440.21750	194.37521	1016.42554	-98.78973	207.68309	865.37262	-77.33260	242.48003	486.53940	-127.86389	246.93364	426.63828	-129.56560	302.60632	419.80179	-180.81685	225.05656	62.09693	-181.88472	175.38747	29.10253	-232.04808	380.96399	46.92717	-238.09708	346.10541	28.08143	-155.81631	159.22929	850.69141	-455.58401	164.46117	481.77225	-455.71875	138.94682	442.03043	-464.34506	189.24036	383.35260	-426.83215	-136.19838	236.90186	-385.02499	-170.39235	262.17047	-323.84119	-109.30363	72.28776	-364.09467	-141.09894	98.40468	-398.44476	248.04144	481.57642	-265.82584	246.82388	92.51024	-265.71921	374.72522	42.21664	-202.00745	213.84279	450.70480	-330.04248	-90.52549	216.46748	-311.25049	-97.88998	73.32603	-333.17496																																																																																		
35	0.227	279.21069	965.98651	-148.64040	254.83020	951.77844	-404.06427	68.14234	947.79492	-216.95779	57.23573	945.47107	-298.94308	169.73615	1001.23743	-439.56125	202.19167	1016.96039	-98.26447	214.66669	865.84723	-76.94489	245.24287	486.88382	-127.07580	248.76118	426.61761	-128.99411	304.62704	419.34991	-179.42201	225.20950	62.08736	-181.78917	175.46242	29.24776	-231.91640	381.04144	46.73820	-238.06883	346.19348	27.87565	-155.56667	167.15347	851.40179	-455.33762	179.52065	483.10971	-456.29318	154.34306	443.31366	-464.66885	204.51685	384.73889	-427.35745	-121.33709	239.94276	-383.48773	-155.57455	262.64648	-321.20224	-92.04980	75.34242	-366.39944	-124.01139	101.81405	-401.03418	251.96739	481.10880	-265.51245	247.01454	92.68842	-265.56262	375.05261	41.75296	-201.58762	228.27631	452.44730	-330.52945	-75.33684	218.56947	-310.53278	-81.24319	75.46729	-335.23407																																																																																		
36	0.233	286.79514	966.54883	-148.07185	262.02084	952.71460	-403.83945	75.56539	948.43573	-216.62704	64.66608	945.61499	-298.57797	176.83440	1002.16412	-438.91412	209.67854	1017.50220	-98.05093	221.60098	866.24255	-76.55880	247.69682	486.82324	-126.78529	250.78760	426.60895	-128.47879	306.54694	418.86142	-178.19383	224.95221	62.14678	-181.17140	175.52061	29.42160	-231.78671	381.11176	46.59163	-238.05650	346.27109	27.70499	-155.34369	175.43071	852.26038	-454.96735	194.44257	484.46954	-456.79593	169.54016	444.66113	-464.80670	219.89384	386.27136	-427.96054	-106.15025	242.00645	-382.38779	-140.77643	262.89420	-319.50900	-74.00026	77.74835	-368.31512	-105.82463	104.56477	-403.29291	256.11423	480.29120	-264.77109	247.13820	92.80290	-265.44211	375.21283	41.40099	-201.49500	242.70372	454.31052	-330.92004	-59.73159	220.30713	-309.89560	-63.55833	76.70917	-336.97971																																																																																		
37	0.240	294.27948	967.16803	-147.47238	269.58121	953.81433	-403.36548	83.16570	949.20148	-216.44594	72.17523	946.06439	-298.35764	184.02882	1003.31348	-438.28137	217.73088	1018.19391	-97.38182	228.41998	866.64203	-76.24197	250.32278	486.85437	-126.34199	252.92372	426.53564	-128.12245	308.51514	418.40582	-177.31213	225.12300	62.20363	-181.06743	175.61523	29.64018	-231.70419	381.21762	46.46622	-238.01485	346.34436	27.49646	-155.10539	183.69234	853.28461	-454.68939	209.10271	485.91559	-457.25067	184.51807	446.12564	-465.00427	235.25668	387.86090	-428.45261	-90.46674	243.22011	-381.33170	-125.72100	262.29953	-318.07175	-55.05394	79.59634	-370.50101	-87.12294	106.65870	-405.03656	258.55173	479.48004	-263.77350	247.36290	92.89161	-265.18372	375.34421	41.17131	-201.44254	257.00262	456.11969	-331.23300	-43.75020	221.37311	-309.36789	-44.80610	77.62135	-339.12808																																																																																		
38	0.247	301.67587	967.76324	-146.77350	277.17303	955.01422	-402.73682	90.62540	950.04901	-216.30486	79.83750	946.84619	-298.21729	191.52168	1004.58551	-437.68335	225.53958	1018.84387	-96.95312	235.64749	867.04865	-76.01389	253.00383	486.79840	-125.94321	255.18333	426.44974	-127.85812	310.56128	417.95547	-176.94627	225.29482	62.29920	-181.02582	175.74208	29.90547	-231.68201	381.36642	46.33473	-237.85170	346.53149	27.36057	-155.08627	192.11714	854.42279	-454.51663	223.62479	487.35345	-457.57349	199.28792	447.52341	-465.00745	250.67216	389.61218	-428.87860	-73.99871	243.13103	-380.28177	-110.40707	261.06183	-316.78333	-35.13530	80.94669	-373.38220	-67.84911	108.06532	-406.65579	261.59857	478.75220	-263.29620	247.58524	92.99539	-265.12726	375.41394	41.14825	-201.41394	269.95108	457.87323	-331.11313	-27.29645	221.53157	-308.68164	-25.07286	78.50288	-341.75653																																																																																		
39	0.253	309.01773	968.28082	-146.07863	284.80753	956.34808	-401.94113	98.04494	951.01276	-216.23689	87.60675	947.90479	-298.21710	199.04071	1005.97528	-437.18774	234.21271	1019.41772	-96.59492	242.38771	867.24121	-75.71402	255.62827	486.73294	-125.62173	257.58737	426.34311	-127.73896	312.70328	417.50787	-177.02196	225.32484	62.46154	-180.57823	175.90509	30.23233	-231.75464	381.57410	46.21935	-237.67502	346.61560	27.13612	-154.78403	200.66747	855.69336	-454.35098	237.90096	488.84619	-457.82193	213.92653	448.91098	-464.90125	266.05917	391.36600	-429.09387	-57.84282	243.04716	-379.39349	-94.81530	258.85559	-315.37457	-14.42047	81.81303	-376.10123	-48.02393	108.89645	-408.27927	264.38007	478.15964	-262.95218	247.62762	93.15369	-265.65353	375.46161	41.17996	-201.22150	285.09497	459.37125	-331.59213	-10.46441	220.98656	-308.12173	-4.39987	79.05111	-344.56769																																																																																		
40	0.260	316.18323	968.76526	-145.28432	292.51273	957.72296	-400.96591	105.51454	952.00470	-216.31929	95.42607	949.03687	-298.33072	206.73769	1007.43036	-436.72815	240.21777	1020.12921	-96.13037	248.87653	867.42468	-75.43732	258.20258	486.64487	-125.44522	260.01547	426.29306	-127.79152	314.85196	417.13852	-177.47884	225.69467	62.66127	-181.13875	176.22421	30.69665	-231.94450	381.83002	46.06165	-237.53729	346.72385	26.96408	-154.54288	209.27432	857.01697	-454.27875	251.99135	490.39627	-458.01450	228.31833	450.27032	-464.64880	281.39954	393.25073	-429.32111	-41.32219	241.83656	-378.91647	-79.02333	255.82430	-314.12338	7.83535	83.20635	-378.62219	-27.59374	109.26188	-409.85855	266.92416	478.17981	-263.36667	248.05080	93.26408	-265.71329	375.60529	41.12718	-200.88068	299.13770	460.84784	-331.29227	6.59025	220.05986	-307.66998	17.15705	79.29774	-347.20154																																																																																		
